<?xml version="1.0" encoding="UTF-8" standalone="no"?>
<svg
   xmlns:dc="http://purl.org/dc/elements/1.1/"
   xmlns:cc="http://creativecommons.org/ns#"
   xmlns:rdf="http://www.w3.org/1999/02/22-rdf-syntax-ns#"
   xmlns:svg="http://www.w3.org/2000/svg"
   xmlns="http://www.w3.org/2000/svg"
   xmlns:sodipodi="http://sodipodi.sourceforge.net/DTD/sodipodi-0.dtd"
   xmlns:inkscape="http://www.inkscape.org/namespaces/inkscape"
   version="1.1"
   viewBox="0 0 885.82677 248.03149"
   stroke-miterlimit="10"
   id="svg2"
   inkscape:version="0.91 r13725"
   sodipodi:docname="meetup_flamegraph.svg"
   width="250mm"
   height="70mm"
   style="fill:none;stroke:none;stroke-linecap:square;stroke-miterlimit:10">
  <metadata
     id="metadata93">
    <rdf:RDF>
      <cc:Work
         rdf:about="">
        <dc:format>image/svg+xml</dc:format>
        <dc:type
           rdf:resource="http://purl.org/dc/dcmitype/StillImage" />
        <dc:title></dc:title>
      </cc:Work>
    </rdf:RDF>
  </metadata>
  <defs
     id="defs91" />
  <sodipodi:namedview
     pagecolor="#ffffff"
     bordercolor="#666666"
     borderopacity="1"
     objecttolerance="10"
     gridtolerance="10"
     guidetolerance="10"
     inkscape:pageopacity="0"
     inkscape:pageshadow="2"
     inkscape:window-width="1366"
     inkscape:window-height="719"
     id="namedview89"
     showgrid="false"
     inkscape:zoom="0.43162976"
     inkscape:cx="393.33209"
     inkscape:cy="333.96852"
     inkscape:window-x="0"
     inkscape:window-y="25"
     inkscape:window-maximized="1"
     inkscape:current-layer="g7"
     units="mm"
     borderlayer="false"
     inkscape:showpageshadow="true"
     height="5mm" />
  <clipPath
     id="p.0">
    <path
       d="M 0,0 960,0 960,720 0,720 0,0 Z"
       id="path5"
       inkscape:connector-curvature="0"
       style="clip-rule:nonzero" />
  </clipPath>
  <g
     clip-path="url(#p.0)"
     id="g7"
     transform="matrix(1.4846416,0,0,1.3959044,0,-757.01969)">
    <path
       d="m 0,0 960,0 0,720 -960,0 z"
       id="path9"
       inkscape:connector-curvature="0"
       style="fill:#000000;fill-opacity:0;fill-rule:nonzero" />
    <path
       d="m 48.197442,563.64399 119.999998,0 0,32 -119.999998,0 z"
       id="path21"
       inkscape:connector-curvature="0"
       style="fill:#000000;fill-opacity:0;fill-rule:nonzero" />
    <path
       d="M 0,0 208,0 208,48 0,48 Z"
       id="path33"
       inkscape:connector-curvature="0"
       style="fill:#000000;fill-opacity:0;fill-rule:nonzero" />
    <path
       d="m 83.358821,670.53886 495.999999,0 0,40 -495.999999,0 z"
       id="path11"
       inkscape:connector-curvature="0"
       style="fill:#ffd966;fill-rule:nonzero" />
    <path
       d="m 83.358821,670.53886 495.999999,0 0,40 -495.999999,0 z"
       id="path13"
       inkscape:connector-curvature="0"
       style="fill-rule:nonzero;stroke:#000000;stroke-width:0.99999994;stroke-linecap:butt;stroke-linejoin:round" />
    <path
       d="m 92.327572,697.45884 5.23437,-13.59375 1.9375,0 5.562488,13.59375 -2.04686,0 -1.59375,-4.125 -5.687498,0 -1.48438,4.125 -1.92187,0 z m 3.92187,-5.57813 4.609378,0 -1.406248,-3.78125 q -0.65625,-1.70312 -0.96875,-2.8125 -0.26563,1.3125 -0.73438,2.59375 l -1.5,4 z m 9.802948,5.57813 0,-9.85938 1.5,0 0,1.40625 q 1.09375,-1.625 3.14063,-1.625 0.89061,0 1.64061,0.32813 0.75,0.3125 1.10938,0.84375 0.375,0.51562 0.53126,1.21875 0.0937,0.46875 0.0937,1.625 l 0,6.0625 -1.67188,0 0,-6 q 0,-1.01563 -0.20312,-1.51563 -0.1875,-0.51562 -0.6875,-0.8125 -0.50001,-0.29687 -1.17189,-0.29687 -1.0625,0 -1.84374,0.67187 -0.76563,0.67188 -0.76563,2.57813 l 0,5.375 -1.67188,0 z m 10.37571,0 0,-9.85938 1.5,0 0,1.40625 q 1.09375,-1.625 3.14063,-1.625 0.89063,0 1.64063,0.32813 0.75,0.3125 1.10938,0.84375 0.375,0.51562 0.53124,1.21875 0.0937,0.46875 0.0937,1.625 l 0,6.0625 -1.67189,0 0,-6 q 0,-1.01563 -0.20312,-1.51563 -0.1875,-0.51562 -0.6875,-0.8125 -0.5,-0.29687 -1.17187,-0.29687 -1.0625,0 -1.84376,0.67187 -0.76562,0.67188 -0.76562,2.57813 l 0,5.375 -1.67187,0 z m 9.75073,-4.92188 q 0,-2.73437 1.53124,-4.0625 1.26563,-1.09375 3.09375,-1.09375 2.03125,0 3.31251,1.34375 1.29687,1.32813 1.29687,3.67188 0,1.90625 -0.57812,3 -0.56251,1.07812 -1.65625,1.6875 -1.07814,0.59375 -2.37501,0.59375 -2.0625,0 -3.34375,-1.32813 -1.28124,-1.32812 -1.28124,-3.8125 z m 1.71874,0 q 0,1.89063 0.82813,2.82813 0.82812,0.9375 2.07812,0.9375 1.25001,0 2.06251,-0.9375 0.82812,-0.95313 0.82812,-2.89063 0,-1.82812 -0.82812,-2.76562 -0.82814,-0.9375 -2.06251,-0.9375 -1.25,0 -2.07812,0.9375 -0.82813,0.9375 -0.82813,2.82812 z m 15.73509,4.92188 0,-1.45313 q -1.14062,1.67188 -3.12499,1.67188 -0.85938,0 -1.625,-0.32813 -0.75001,-0.34375 -1.12501,-0.84375 -0.35938,-0.5 -0.51562,-1.23437 -0.0937,-0.5 -0.0937,-1.5625 l 0,-6.10938 1.67188,0 0,5.46875 q 0,1.3125 0.0937,1.76563 0.15626,0.65625 0.67188,1.03125 0.51562,0.375 1.26562,0.375 0.75001,0 1.40625,-0.375 0.65626,-0.39063 0.92188,-1.04688 0.28124,-0.67187 0.28124,-1.9375 l 0,-5.28125 1.67189,0 0,9.85938 -1.50001,0 z m 3.92259,0 0,-9.85938 1.50001,0 0,1.40625 q 1.09374,-1.625 3.14063,-1.625 0.89062,0 1.64062,0.32813 0.75,0.3125 1.10937,0.84375 0.375,0.51562 0.53126,1.21875 0.0937,0.46875 0.0937,1.625 l 0,6.0625 -1.67189,0 0,-6 q 0,-1.01563 -0.20312,-1.51563 -0.1875,-0.51562 -0.6875,-0.8125 -0.5,-0.29687 -1.17188,-0.29687 -1.06249,0 -1.84375,0.67187 -0.76562,0.67188 -0.76562,2.57813 l 0,5.375 -1.67187,0 z m 16.81323,-3.60938 1.64061,0.21875 q -0.26562,1.6875 -1.37499,2.65625 -1.10938,0.95313 -2.73438,0.95313 -2.01563,0 -3.24999,-1.3125 -1.21875,-1.32813 -1.21875,-3.79688 0,-1.59375 0.51562,-2.78125 0.53125,-1.20312 1.60937,-1.79687 1.09376,-0.60938 2.35937,-0.60938 1.60938,0 2.625,0.8125 1.01563,0.8125 1.31251,2.3125 l -1.62501,0.25 q -0.23436,-1 -0.82812,-1.5 -0.59374,-0.5 -1.42188,-0.5 -1.26561,0 -2.06249,0.90625 -0.78126,0.90625 -0.78126,2.85938 0,1.98437 0.76564,2.89062 0.76562,0.89063 1.98437,0.89063 0.98438,0 1.64062,-0.59375 0.65626,-0.60938 0.84376,-1.85938 z m 9.64061,0.4375 1.71875,0.21875 q -0.40624,1.5 -1.51562,2.34375 -1.09375,0.82813 -2.81249,0.82813 -2.15625,0 -3.42189,-1.32813 -1.26561,-1.32812 -1.26561,-3.73437 0,-2.48438 1.26561,-3.85938 1.28126,-1.375 3.32813,-1.375 1.98438,0 3.23437,1.34375 1.25,1.34375 1.25,3.79688 0,0.14062 -0.0156,0.4375 l -7.34375,0 q 0.0937,1.625 0.92187,2.48437 0.82813,0.85938 2.0625,0.85938 0.90625,0 1.54688,-0.46875 0.65625,-0.48438 1.04686,-1.54688 z m -5.48437,-2.70312 5.50001,0 q -0.10938,-1.23438 -0.625,-1.85938 -0.79688,-0.96875 -2.07814,-0.96875 -1.14061,0 -1.93749,0.78125 -0.78126,0.76563 -0.85938,2.04688 z m 9.1101,5.875 0,-9.85938 1.49999,0 0,1.39063 q 0.45314,-0.71875 1.21876,-1.15625 0.78125,-0.45313 1.76563,-0.45313 1.09374,0 1.79686,0.45313 0.70313,0.45312 0.98439,1.28125 1.17186,-1.73438 3.04687,-1.73438 1.46874,0 2.25,0.8125 0.79687,0.8125 0.79687,2.5 l 0,6.76563 -1.67187,0 0,-6.20313 q 0,-1 -0.15626,-1.4375 -0.15624,-0.45312 -0.59374,-0.71875 -0.42188,-0.26562 -1,-0.26562 -1.03125,0 -1.71875,0.6875 -0.6875,0.6875 -0.6875,2.21875 l 0,5.71875 -1.67187,0 0,-6.40625 q 0,-1.10938 -0.40626,-1.65625 -0.40624,-0.5625 -1.34374,-0.5625 -0.70314,0 -1.31251,0.375 -0.59374,0.35937 -0.85938,1.07812 -0.26562,0.71875 -0.26562,2.0625 l 0,5.10938 -1.67187,0 z m 22.2908,-3.17188 1.71875,0.21875 q -0.40626,1.5 -1.51563,2.34375 -1.09374,0.82813 -2.81249,0.82813 -2.15626,0 -3.42189,-1.32813 -1.26562,-1.32812 -1.26562,-3.73437 0,-2.48438 1.26562,-3.85938 1.28125,-1.375 3.32813,-1.375 1.98437,0 3.23437,1.34375 1.25001,1.34375 1.25001,3.79688 0,0.14062 -0.0156,0.4375 l -7.34375,0 q 0.0937,1.625 0.92187,2.48437 0.82813,0.85938 2.0625,0.85938 0.90625,0 1.54688,-0.46875 0.65625,-0.48438 1.04687,-1.54688 z m -5.48438,-2.70312 5.5,0 q -0.10938,-1.23438 -0.625,-1.85938 -0.79688,-0.96875 -2.07813,-0.96875 -1.14062,0 -1.9375,0.78125 -0.78125,0.76563 -0.85937,2.04688 z m 9.11007,5.875 0,-9.85938 1.50001,0 0,1.40625 q 1.09374,-1.625 3.14063,-1.625 0.89062,0 1.64062,0.32813 0.75,0.3125 1.10937,0.84375 0.375,0.51562 0.53126,1.21875 0.0937,0.46875 0.0937,1.625 l 0,6.0625 -1.67189,0 0,-6 q 0,-1.01563 -0.20312,-1.51563 -0.1875,-0.51562 -0.6875,-0.8125 -0.5,-0.29687 -1.17188,-0.29687 -1.06249,0 -1.84375,0.67187 -0.76562,0.67188 -0.76562,2.57813 l 0,5.375 -1.67187,0 z m 14.032,-1.5 0.23437,1.48437 q -0.70313,0.14063 -1.26563,0.14063 -0.90624,0 -1.40624,-0.28125 -0.5,-0.29688 -0.70313,-0.75 -0.20312,-0.46875 -0.20312,-1.98438 l 0,-5.65625 -1.23438,0 0,-1.3125 1.23438,0 0,-2.4375 1.65625,-1 0,3.4375 1.6875,0 0,1.3125 -1.6875,0 0,5.75 q 0,0.71875 0.0781,0.92188 0.0937,0.20312 0.29688,0.32812 0.20312,0.125 0.57812,0.125 0.26562,0 0.73437,-0.0781 z m 0.85516,-1.4375 1.65624,-0.26563 q 0.14062,1 0.76562,1.53125 0.64063,0.51563 1.78125,0.51563 1.15626,0 1.70313,-0.46875 0.5625,-0.46875 0.5625,-1.09375 0,-0.5625 -0.48438,-0.89063 -0.34375,-0.21875 -1.70311,-0.5625 -1.84375,-0.46875 -2.56251,-0.79687 -0.70312,-0.34375 -1.07812,-0.9375 -0.35938,-0.60938 -0.35938,-1.32813 0,-0.65625 0.29688,-1.21875 0.3125,-0.5625 0.82812,-0.9375 0.39062,-0.28125 1.0625,-0.48437 0.67187,-0.20313 1.43751,-0.20313 1.17186,0 2.04687,0.34375 0.875,0.32813 1.28124,0.90625 0.42188,0.5625 0.57814,1.51563 l -1.625,0.21875 q -0.10938,-0.75 -0.65625,-1.17188 -0.53126,-0.4375 -1.5,-0.4375 -1.15626,0 -1.64063,0.39063 -0.48438,0.375 -0.48438,0.875 0,0.32812 0.20312,0.59375 0.20314,0.26562 0.64063,0.4375 0.25,0.0937 1.46876,0.4375 1.76561,0.46875 2.46875,0.76562 0.70312,0.29688 1.09374,0.875 0.40626,0.57813 0.40626,1.4375 0,0.82813 -0.48438,1.57813 -0.48438,0.73437 -1.40626,1.14062 -0.92187,0.39063 -2.07811,0.39063 -1.92189,0 -2.93751,-0.79688 -1,-0.79687 -1.28124,-2.35937 z"
       id="path15"
       inkscape:connector-curvature="0"
       style="fill:#000000;fill-rule:nonzero" />
    <path
       d="m 83.358821,630.53886 16.000001,0 0,40 -16.000001,0 z"
       id="path17"
       inkscape:connector-curvature="0"
       style="fill:#e06666;fill-rule:nonzero" />
    <path
       d="m 83.358821,630.53886 16.000001,0 0,40 -16.000001,0 z"
       id="path19"
       inkscape:connector-curvature="0"
       style="fill-rule:nonzero;stroke:#000000;stroke-width:0.99999994;stroke-linecap:butt;stroke-linejoin:round" />
    <path
       d="m 9.2806982,605.45884 0,-11.99999 -4.46875,0 0,-1.59375 10.7656198,0 0,1.59375 -4.5,0 0,11.99999 -1.7968698,0 z m 7.7240998,0 0,-13.59374 1.67188,0 0,4.875 q 1.17187,-1.35937 2.95312,-1.35937 1.09375,0 1.89063,0.4375 0.8125,0.42187 1.15625,1.1875 0.35937,0.76562 0.35937,2.20311 l 0,6.25 -1.67187,0 0,-6.25 q 0,-1.24999 -0.54688,-1.81249 -0.54687,-0.57812 -1.53125,-0.57812 -0.75,0 -1.40625,0.39062 -0.64062,0.375 -0.92187,1.04688 -0.28125,0.65623 -0.28125,1.81248 l 0,5.39063 -1.67188,0 z m 16.81322,-1.21875 q -0.9375,0.79687 -1.796875,1.125 -0.859375,0.3125 -1.843745,0.3125 -1.60938,0 -2.48438,-0.78125 -0.875,-0.79688 -0.875,-2.03125 0,-0.73438 0.32813,-1.32813 0.32812,-0.59375 0.85937,-0.95312 0.53125,-0.35938 1.20313,-0.54688 0.5,-0.14062 1.48437,-0.25 2.03125,-0.25 2.984375,-0.57812 0,-0.34375 0,-0.4375 0,-1.01561 -0.46875,-1.43748 -0.640625,-0.5625 -1.90625,-0.5625 -1.171875,0 -1.734375,0.40625 -0.5625,0.40625 -0.82812,1.46873 l -1.64063,-0.23436 q 0.23438,-1.04687 0.73438,-1.6875 0.51562,-0.64062 1.46875,-0.98437 0.96875,-0.35938 2.249995,-0.35938 1.265625,0 2.046875,0.29688 0.78125,0.29687 1.15625,0.75 0.375,0.45312 0.515625,1.14062 0.09375,0.42188 0.09375,1.53123 l 0,2.23438 q 0,2.32812 0.09375,2.95312 0.109375,0.60938 0.4375,1.17188 l -1.75,0 q -0.265625,-0.51563 -0.328125,-1.21875 z m -0.140625,-3.71875 q -0.90625,0.35937 -2.734375,0.625 -1.03125,0.14062 -1.45312,0.32812 -0.42188,0.1875 -0.65625,0.54688 -0.23438,0.35937 -0.23438,0.79687 0,0.67188 0.5,1.125 0.51563,0.4375 1.48438,0.4375 0.968745,0 1.718745,-0.42187 0.75,-0.4375 1.109375,-1.15625 0.265625,-0.57813 0.265625,-1.67188 l 0,-0.60937 z m 4.078842,4.9375 0,-9.85936 1.5,0 0,1.40625 q 1.093755,-1.625 3.140625,-1.625 0.89063,0 1.64063,0.32812 0.75,0.3125 1.10937,0.84375 0.375,0.51563 0.53125,1.21875 0.0937,0.46875 0.0937,1.62499 l 0,6.0625 -1.67187,0 0,-6 q 0,-1.01561 -0.20313,-1.51561 -0.1875,-0.51563 -0.6875,-0.8125 -0.5,-0.29688 -1.17187,-0.29688 -1.0625,0 -1.84375,0.67188 -0.76563,0.67187 -0.76563,2.57811 l 0,5.375 -1.671875,0 z m 10.391345,0 0,-13.59374 1.67187,0 0,7.74999 3.95313,-4.01561 2.15625,0 -3.76563,3.65623 4.14063,6.20313 -2.0625,0 -3.25,-5.03125 -1.17188,1.125 0,3.90625 -1.67187,0 z m 18.54268,0 0,-5.76563 -5.23438,-7.8281 2.1875,0 2.67188,4.09375 q 0.75,1.15625 1.39062,2.29687 0.60938,-1.0625 1.48438,-2.40625 l 2.625,-3.98437 2.109372,0 -5.437502,7.8281 0,5.76563 -1.79687,0 z m 7.771687,-4.92188 q 0,-2.73435 1.531251,-4.06248 1.265632,-1.09375 3.09375,-1.09375 2.031252,0 3.312504,1.34375 1.296878,1.32813 1.296878,3.67186 0,1.90625 -0.578133,3 -0.562499,1.07812 -1.656244,1.6875 -1.078126,0.59375 -2.375005,0.59375 -2.062497,0 -3.343749,-1.32813 -1.281252,-1.32812 -1.281252,-3.8125 z m 1.718751,0 q 0,1.89063 0.828133,2.82813 0.828119,0.9375 2.078117,0.9375 1.249999,0 2.062505,-0.9375 0.828126,-0.95313 0.828126,-2.89063 0,-1.82812 -0.828126,-2.7656 -0.828126,-0.9375 -2.062505,-0.9375 -1.249998,0 -2.078117,0.9375 -0.828133,0.93748 -0.828133,2.8281 z m 15.735104,4.92188 0,-1.45313 q -1.140632,1.67188 -3.125003,1.67188 -0.859379,0 -1.624998,-0.32813 -0.75,-0.34375 -1.124999,-0.84375 -0.35938,-0.5 -0.515633,-1.23437 -0.0937,-0.5 -0.0937,-1.5625 l 0,-6.10936 1.671878,0 0,5.46873 q 0,1.3125 0.0937,1.76563 0.156253,0.65625 0.671873,1.03125 0.515633,0.375 1.265632,0.375 0.749999,0 1.406245,-0.375 0.656253,-0.39063 0.921872,-1.04688 0.281253,-0.67187 0.281253,-1.9375 l 0,-5.28123 1.67188,0 0,9.85936 -1.5,0 z m 4.81321,-3.375 -0.5,-7.20311 0,-3.01562 2.0625,0 0,3.01562 -0.48437,7.20311 -1.07813,0 z m -0.4375,3.375 0,-1.90625 1.92188,0 0,1.90625 -1.92188,0 z"
       id="path23"
       inkscape:connector-curvature="0"
       style="fill:#000000;fill-rule:nonzero" />
    <path
       d="m 99.358822,630.53886 31.999988,0 0,40 -31.999988,0 z"
       id="path25"
       inkscape:connector-curvature="0"
       style="fill:#cc0000;fill-rule:nonzero" />
    <path
       d="m 99.358822,630.53886 31.999988,0 0,40 -31.999988,0 z"
       id="path27"
       inkscape:connector-curvature="0"
       style="fill-rule:nonzero;stroke:#000000;stroke-width:0.99999994;stroke-linecap:butt;stroke-linejoin:round" />
    <path
       d="m 43.35882,550.53886 240.00001,0 0,24 -240.00001,0 z"
       id="path29"
       inkscape:connector-curvature="0"
       style="fill:#000000;fill-opacity:0;fill-rule:nonzero" />
    <path
       d="m 56.20257,569.45886 -3.60937,-13.59375 1.84375,0 2.0625,8.90625 q 0.34375,1.40625 0.57812,2.78125 0.51563,-2.17188 0.60938,-2.51563 l 2.59375,-9.17187 2.17187,0 1.95313,6.875 q 0.73437,2.5625 1.04687,4.8125 0.26563,-1.28125 0.6875,-2.95313 l 2.125,-8.73437 1.8125,0 -3.73437,13.59375 -1.73438,0 -2.85937,-10.35938 q -0.35938,-1.29687 -0.42188,-1.59375 -0.21875,0.9375 -0.40625,1.59375 l -2.89062,10.35938 -1.82813,0 z m 15.01491,0 0,-13.59375 1.671872,0 0,4.875 q 1.171878,-1.35938 2.95313,-1.35938 1.093745,0 1.890618,0.4375 0.812499,0.42188 1.156252,1.1875 0.35938,0.76563 0.35938,2.20313 l 0,6.25 -1.671885,0 0,-6.25 q 0,-1.25 -0.546866,-1.8125 -0.54688,-0.57813 -1.531252,-0.57813 -0.749999,0 -1.406252,0.39063 -0.640626,0.375 -0.921879,1.04687 -0.281246,0.65625 -0.281246,1.8125 l 0,5.39063 -1.671872,0 z m 17.125709,-3.17188 1.718752,0.21875 q -0.406253,1.5 -1.515619,2.34375 -1.093752,0.82813 -2.812503,0.82813 -2.156251,0 -3.421877,-1.32813 -1.265625,-1.32812 -1.265625,-3.73437 0,-2.48438 1.265625,-3.85938 1.281246,-1.375 3.32813,-1.375 1.984371,0 3.23437,1.34375 1.249999,1.34375 1.249999,3.79688 0,0.14062 -0.01563,0.4375 l -7.343752,0 q 0.0937,1.625 0.921872,2.48437 0.828126,0.85938 2.062498,0.85938 0.906252,0 1.546878,-0.46875 0.656253,-0.48438 1.046872,-1.54688 z m -5.484367,-2.70312 5.500001,0 q -0.10938,-1.23438 -0.625,-1.85938 -0.796886,-0.96875 -2.078131,-0.96875 -1.140619,0 -1.937505,0.78125 -0.781245,0.76563 -0.859365,2.04688 z m 9.094471,5.875 0,-9.85938 1.499999,0 0,1.5 q 0.57812,-1.04687 1.0625,-1.375 0.48437,-0.34375 1.07812,-0.34375 0.84375,0 1.71875,0.54688 l -0.57812,1.54687 q -0.60938,-0.35937 -1.23438,-0.35937 -0.54687,0 -0.98437,0.32812 -0.42188,0.32813 -0.60938,0.90625 -0.28125,0.89063 -0.28125,1.95313 l 0,5.15625 -1.671869,0 z m 12.978297,-3.17188 1.71875,0.21875 q -0.40626,1.5 -1.51564,2.34375 -1.09374,0.82813 -2.81249,0.82813 -2.15625,0 -3.421868,-1.32813 -1.26563,-1.32812 -1.26563,-3.73437 0,-2.48438 1.26563,-3.85938 1.281248,-1.375 3.328118,-1.375 1.98438,0 3.23438,1.34375 1.25,1.34375 1.25,3.79688 0,0.14062 -0.0156,0.4375 l -7.343748,0 q 0.0937,1.625 0.921878,2.48437 0.82812,0.85938 2.0625,0.85938 0.90625,0 1.54687,-0.46875 0.65625,-0.48438 1.04688,-1.54688 z m -5.484378,-2.70312 5.499988,0 q -0.10937,-1.23438 -0.62499,-1.85938 -0.79687,-0.96875 -2.07812,-0.96875 -1.14063,0 -1.9375,0.78125 -0.781248,0.76563 -0.859378,2.04688 z m 20.730898,4.65625 q -0.9375,0.79687 -1.79689,1.125 -0.85936,0.3125 -1.84374,0.3125 -1.60937,0 -2.48437,-0.78125 -0.875,-0.79688 -0.875,-2.03125 0,-0.73438 0.32812,-1.32813 0.32812,-0.59375 0.85938,-0.95312 0.53124,-0.35938 1.20311,-0.54688 0.5,-0.14062 1.48438,-0.25 2.03125,-0.25 2.98437,-0.57812 0,-0.34375 0,-0.4375 0,-1.01563 -0.46874,-1.4375 -0.64062,-0.5625 -1.90625,-0.5625 -1.17188,0 -1.73438,0.40625 -0.5625,0.40625 -0.82813,1.46875 l -1.64062,-0.23438 q 0.23438,-1.04687 0.73438,-1.6875 0.51562,-0.64062 1.46875,-0.98437 0.96874,-0.35938 2.25,-0.35938 1.26563,0 2.04687,0.29688 0.78126,0.29687 1.15626,0.75 0.375,0.45312 0.51561,1.14062 0.0937,0.42188 0.0937,1.53125 l 0,2.23438 q 0,2.32812 0.0937,2.95312 0.10938,0.60938 0.4375,1.17188 l -1.74999,0 q -0.26562,-0.51563 -0.32812,-1.21875 z m -0.14064,-3.71875 q -0.90624,0.35937 -2.73437,0.625 -1.03124,0.14062 -1.45312,0.32812 -0.42188,0.1875 -0.65625,0.54688 -0.23438,0.35937 -0.23438,0.79687 0,0.67188 0.50001,1.125 0.51562,0.4375 1.48436,0.4375 0.96876,0 1.71875,-0.42187 0.75,-0.4375 1.10938,-1.15625 0.26562,-0.57813 0.26562,-1.67188 l 0,-0.60937 z m 4.06323,4.9375 0,-9.85938 1.49999,0 0,1.5 q 0.57814,-1.04687 1.0625,-1.375 0.48438,-0.34375 1.07814,-0.34375 0.84375,0 1.71875,0.54688 l -0.57814,1.54687 q -0.60937,-0.35937 -1.23437,-0.35937 -0.54688,0 -0.98438,0.32812 -0.42186,0.32813 -0.60936,0.90625 -0.28126,0.89063 -0.28126,1.95313 l 0,5.15625 -1.67187,0 z m 12.97829,-3.17188 1.71876,0.21875 q -0.40626,1.5 -1.51562,2.34375 -1.09376,0.82813 -2.81251,0.82813 -2.15625,0 -3.42187,-1.32813 -1.26562,-1.32812 -1.26562,-3.73437 0,-2.48438 1.26562,-3.85938 1.28124,-1.375 3.32813,-1.375 1.98437,0 3.23437,1.34375 1.24999,1.34375 1.24999,3.79688 0,0.14062 -0.0156,0.4375 l -7.34375,0 q 0.0937,1.625 0.92187,2.48437 0.82813,0.85938 2.0625,0.85938 0.90625,0 1.54688,-0.46875 0.65625,-0.48438 1.04687,-1.54688 z m -5.48436,-2.70312 5.5,0 q -0.10938,-1.23438 -0.625,-1.85938 -0.79689,-0.96875 -2.07813,-0.96875 -1.14062,0 -1.93751,0.78125 -0.78124,0.76563 -0.85936,2.04688 z m 17.94965,4.375 0.23436,1.48437 q -0.70311,0.14063 -1.26561,0.14063 -0.90626,0 -1.40626,-0.28125 -0.5,-0.29688 -0.70312,-0.75 -0.20312,-0.46875 -0.20312,-1.98438 l 0,-5.65625 -1.23439,0 0,-1.3125 1.23439,0 0,-2.4375 1.65624,-1 0,3.4375 1.68751,0 0,1.3125 -1.68751,0 0,5.75 q 0,0.71875 0.0781,0.92188 0.0937,0.20312 0.29688,0.32812 0.20312,0.125 0.57812,0.125 0.26564,0 0.73439,-0.0781 z m 1.52705,1.5 0,-13.59375 1.67187,0 0,4.875 q 1.17188,-1.35938 2.95312,-1.35938 1.09375,0 1.89063,0.4375 0.8125,0.42188 1.15624,1.1875 0.35939,0.76563 0.35939,2.20313 l 0,6.25 -1.67189,0 0,-6.25 q 0,-1.25 -0.54686,-1.8125 -0.54688,-0.57813 -1.53125,-0.57813 -0.75,0 -1.40626,0.39063 -0.64062,0.375 -0.92188,1.04687 -0.28124,0.65625 -0.28124,1.8125 l 0,5.39063 -1.67187,0 z m 17.12571,-3.17188 1.71875,0.21875 q -0.40624,1.5 -1.51563,2.34375 -1.09374,0.82813 -2.81249,0.82813 -2.15626,0 -3.42187,-1.32813 -1.26564,-1.32812 -1.26564,-3.73437 0,-2.48438 1.26564,-3.85938 1.28125,-1.375 3.32811,-1.375 1.98439,0 3.23439,1.34375 1.24999,1.34375 1.24999,3.79688 0,0.14062 -0.0156,0.4375 l -7.34375,0 q 0.0937,1.625 0.92188,2.48437 0.82812,0.85938 2.0625,0.85938 0.90625,0 1.54687,-0.46875 0.65625,-0.48438 1.04688,-1.54688 z m -5.48437,-2.70312 5.49999,0 q -0.10936,-1.23438 -0.625,-1.85938 -0.79686,-0.96875 -2.07811,-0.96875 -1.14064,0 -1.9375,0.78125 -0.78126,0.76563 -0.85938,2.04688 z m 15.84027,5.875 -1.54688,0 0,-13.59375 1.65626,0 0,4.84375 q 1.06249,-1.32813 2.70311,-1.32813 0.90626,0 1.71875,0.375 0.8125,0.35938 1.32814,1.03125 0.53124,0.65625 0.82812,1.59375 0.29688,0.9375 0.29688,2 0,2.53125 -1.25,3.92188 -1.25,1.375 -3.00001,1.375 -1.75,0 -2.73437,-1.45313 l 0,1.23438 z m -0.0156,-5 q 0,1.76562 0.46875,2.5625 0.79687,1.28125 2.14062,1.28125 1.09375,0 1.89063,-0.9375 0.79687,-0.95313 0.79687,-2.84375 0,-1.92188 -0.76562,-2.84375 -0.76563,-0.92188 -1.84375,-0.92188 -1.09375,0 -1.89064,0.95313 -0.79686,0.95312 -0.79686,2.75 z m 15.28196,3.78125 q -0.9375,0.79687 -1.79687,1.125 -0.85938,0.3125 -1.84375,0.3125 -1.60938,0 -2.48438,-0.78125 -0.875,-0.79688 -0.875,-2.03125 0,-0.73438 0.32813,-1.32813 0.32812,-0.59375 0.85937,-0.95312 0.53125,-0.35938 1.20313,-0.54688 0.5,-0.14062 1.48437,-0.25 2.03125,-0.25 2.98438,-0.57812 0,-0.34375 0,-0.4375 0,-1.01563 -0.46875,-1.4375 -0.64063,-0.5625 -1.90625,-0.5625 -1.17188,0 -1.73438,0.40625 -0.5625,0.40625 -0.82812,1.46875 l -1.64063,-0.23438 q 0.23438,-1.04687 0.73438,-1.6875 0.51562,-0.64062 1.46874,-0.98437 0.96876,-0.35938 2.25001,-0.35938 1.26562,0 2.04687,0.29688 0.78125,0.29687 1.15625,0.75 0.375,0.45312 0.51563,1.14062 0.0937,0.42188 0.0937,1.53125 l 0,2.23438 q 0,2.32812 0.0937,2.95312 0.10938,0.60938 0.4375,1.17188 l -1.74998,0 q -0.26563,-0.51563 -0.32813,-1.21875 z m -0.14062,-3.71875 q -0.90625,0.35937 -2.73438,0.625 -1.03125,0.14062 -1.45313,0.32812 -0.42187,0.1875 -0.65624,0.54688 -0.23438,0.35937 -0.23438,0.79687 0,0.67188 0.5,1.125 0.51563,0.4375 1.48438,0.4375 0.96875,0 1.71875,-0.42187 0.75,-0.4375 1.10937,-1.15625 0.26563,-0.57813 0.26563,-1.67188 l 0,-0.60937 z m 7.73509,3.4375 0.23438,1.48437 q -0.70313,0.14063 -1.26563,0.14063 -0.90626,0 -1.40625,-0.28125 -0.5,-0.29688 -0.70312,-0.75 -0.20313,-0.46875 -0.20313,-1.98438 l 0,-5.65625 -1.23437,0 0,-1.3125 1.23437,0 0,-2.4375 1.65625,-1 0,3.4375 1.6875,0 0,1.3125 -1.6875,0 0,5.75 q 0,0.71875 0.0781,0.92188 0.0937,0.20312 0.29687,0.32812 0.20313,0.125 0.57813,0.125 0.26562,0 0.73437,-0.0781 z m 1.52704,1.5 0,-13.59375 1.67187,0 0,4.875 q 1.17187,-1.35938 2.95313,-1.35938 1.09375,0 1.89062,0.4375 0.8125,0.42188 1.15625,1.1875 0.35938,0.76563 0.35938,2.20313 l 0,6.25 -1.67188,0 0,-6.25 q 0,-1.25 -0.54687,-1.8125 -0.54688,-0.57813 -1.53125,-0.57813 -0.75,0 -1.40625,0.39063 -0.64063,0.375 -0.92188,1.04687 -0.28125,0.65625 -0.28125,1.8125 l 0,5.39063 -1.67187,0 z m 10.36011,0 0,-9.85938 1.5,0 0,1.5 q 0.57812,-1.04687 1.0625,-1.375 0.48437,-0.34375 1.07812,-0.34375 0.84375,0 1.71875,0.54688 l -0.57812,1.54687 q -0.60938,-0.35937 -1.23438,-0.35937 -0.54687,0 -0.98437,0.32812 -0.42188,0.32813 -0.60938,0.90625 -0.28125,0.89063 -0.28125,1.95313 l 0,5.15625 -1.67187,0 z m 5.6033,-4.92188 q 0,-2.73437 1.53125,-4.0625 1.26562,-1.09375 3.09375,-1.09375 2.03125,0 3.3125,1.34375 1.29687,1.32813 1.29687,3.67188 0,1.90625 -0.57812,3 -0.5625,1.07812 -1.65625,1.6875 -1.07813,0.59375 -2.375,0.59375 -2.0625,0 -3.34376,-1.32813 -1.28124,-1.32812 -1.28124,-3.8125 z m 1.71875,0 q 0,1.89063 0.82812,2.82813 0.82813,0.9375 2.07813,0.9375 1.25,0 2.0625,-0.9375 0.82812,-0.95313 0.82812,-2.89063 0,-1.82812 -0.82812,-2.76562 -0.82813,-0.9375 -2.0625,-0.9375 -1.25,0 -2.07813,0.9375 -0.82812,0.9375 -0.82812,2.82812 z m 8.65695,0 q 0,-2.73437 1.53125,-4.0625 1.26564,-1.09375 3.09376,-1.09375 2.03125,0 3.3125,1.34375 1.29688,1.32813 1.29688,3.67188 0,1.90625 -0.57813,3 -0.5625,1.07812 -1.65626,1.6875 -1.07811,0.59375 -2.37499,0.59375 -2.0625,0 -3.34376,-1.32813 -1.28125,-1.32812 -1.28125,-3.8125 z m 1.71875,0 q 0,1.89063 0.82814,2.82813 0.82812,0.9375 2.07812,0.9375 1.25,0 2.0625,-0.9375 0.82813,-0.95313 0.82813,-2.89063 0,-1.82812 -0.82813,-2.76562 -0.82812,-0.9375 -2.0625,-0.9375 -1.25,0 -2.07812,0.9375 -0.82814,0.9375 -0.82814,2.82812 z m 9.28198,4.92188 0,-9.85938 1.50001,0 0,1.39063 q 0.45313,-0.71875 1.21875,-1.15625 0.78125,-0.45313 1.76563,-0.45313 1.09375,0 1.79687,0.45313 0.70313,0.45312 0.98438,1.28125 1.17187,-1.73438 3.04687,-1.73438 1.46875,0 2.25,0.8125 0.79688,0.8125 0.79688,2.5 l 0,6.76563 -1.67188,0 0,-6.20313 q 0,-1 -0.15625,-1.4375 -0.15625,-0.45312 -0.59375,-0.71875 -0.42187,-0.26562 -1,-0.26562 -1.03125,0 -1.71875,0.6875 -0.6875,0.6875 -0.6875,2.21875 l 0,5.71875 -1.67187,0 0,-6.40625 q 0,-1.10938 -0.40625,-1.65625 -0.40625,-0.5625 -1.34375,-0.5625 -0.70313,0 -1.3125,0.375 -0.59375,0.35937 -0.85938,1.07812 -0.26562,0.71875 -0.26562,2.0625 l 0,5.10938 -1.67189,0 z m 14.86894,-2.9375 1.65624,-0.26563 q 0.14062,1 0.76563,1.53125 0.64063,0.51563 1.78125,0.51563 1.15625,0 1.70313,-0.46875 0.5625,-0.46875 0.5625,-1.09375 0,-0.5625 -0.48438,-0.89063 -0.34375,-0.21875 -1.70312,-0.5625 -1.84375,-0.46875 -2.56251,-0.79687 -0.70312,-0.34375 -1.07812,-0.9375 -0.35937,-0.60938 -0.35937,-1.32813 0,-0.65625 0.29687,-1.21875 0.3125,-0.5625 0.82813,-0.9375 0.39061,-0.28125 1.0625,-0.48437 0.67187,-0.20313 1.4375,-0.20313 1.17187,0 2.04687,0.34375 0.875,0.32813 1.28125,0.90625 0.42188,0.5625 0.57813,1.51563 l -1.625,0.21875 q -0.10938,-0.75 -0.65625,-1.17188 -0.53126,-0.4375 -1.5,-0.4375 -1.15625,0 -1.64063,0.39063 -0.48437,0.375 -0.48437,0.875 0,0.32812 0.20312,0.59375 0.20313,0.26562 0.64063,0.4375 0.25,0.0937 1.46875,0.4375 1.76562,0.46875 2.46875,0.76562 0.70312,0.29688 1.09375,0.875 0.40625,0.57813 0.40625,1.4375 0,0.82813 -0.48438,1.57813 -0.48437,0.73437 -1.40625,1.14062 -0.92187,0.39063 -2.07812,0.39063 -1.92188,0 -2.9375,-0.79688 -1,-0.79687 -1.28125,-2.35937 z"
       id="path31"
       inkscape:connector-curvature="0"
       style="fill:#000000;fill-rule:nonzero" />
    <path
       d="m 131.35881,630.53886 216.00001,0 0,40 -216.00001,0 z"
       id="path35"
       inkscape:connector-curvature="0"
       style="fill:#dd7e6b;fill-rule:nonzero" />
    <path
       d="m 131.35881,630.53886 216.00001,0 0,40 -216.00001,0 z"
       id="path37"
       inkscape:connector-curvature="0"
       style="fill-rule:nonzero;stroke:#000000;stroke-width:0.99999994;stroke-linecap:butt;stroke-linejoin:round" />
    <path
       d="m 145.31194,651.68386 0,-1 3.62499,-0.0156 0,3.1875 q -0.82812,0.67188 -1.71874,1.01563 -0.89063,0.32811 -1.82813,0.32811 -1.26562,0 -2.31249,-0.53124 -1.03126,-0.54687 -1.5625,-1.5625 -0.51564,-1.03126 -0.51564,-2.29687 0,-1.26563 0.51564,-2.34375 0.53124,-1.09375 1.51562,-1.60938 0.98437,-0.53125 2.26563,-0.53125 0.9375,0 1.6875,0.29688 0.74999,0.29687 1.17187,0.84374 0.4375,0.53126 0.65624,1.40625 l -1.01562,0.28126 q -0.20312,-0.65625 -0.5,-1.03125 -0.28124,-0.375 -0.81249,-0.59375 -0.53126,-0.23439 -1.17188,-0.23439 -0.78126,0 -1.35938,0.23439 -0.56249,0.23437 -0.92187,0.625 -0.34376,0.39062 -0.53126,0.85937 -0.32812,0.79687 -0.32812,1.71875 0,1.15625 0.39062,1.9375 0.40626,0.76563 1.15626,1.14063 0.74999,0.375 1.60937,0.375 0.73438,0 1.4375,-0.28125 0.70313,-0.29688 1.06251,-0.60938 l 0,-1.60938 -2.51563,0 z m 4.7871,0.26562 q 0,-1.73437 0.95312,-2.5625 0.79688,-0.6875 1.95314,-0.6875 1.28125,0 2.09375,0.84375 0.82812,0.82813 0.82812,2.3125 0,1.20313 -0.35938,1.89063 -0.35938,0.6875 -1.0625,1.07812 -0.6875,0.375 -1.49999,0.375 -1.29688,0 -2.10938,-0.82812 -0.79688,-0.84375 -0.79688,-2.42188 z m 1.07812,0 q 0,1.1875 0.51564,1.78125 0.53124,0.59375 1.3125,0.59375 0.79687,0 1.31249,-0.59375 0.51562,-0.59375 0.51562,-1.8125 0,-1.15625 -0.53124,-1.75 -0.51562,-0.59375 -1.29687,-0.59375 -0.78126,0 -1.3125,0.59375 -0.51564,0.57813 -0.51564,1.78125 z m 5.17384,3.10938 3.29687,-8.59375 1.21876,0 3.51561,8.59375 -1.28124,0 -1.01563,-2.60938 -3.57813,0 -0.95312,2.60938 -1.20312,0 z m 2.48438,-3.53125 2.90625,0 -0.89064,-2.375 q -0.42186,-1.07813 -0.60936,-1.78125 -0.17188,0.82812 -0.46876,1.64062 l -0.93749,2.51563 z m 6.41014,3.53125 0,-8.59375 1.14063,0 0,4.26562 4.26563,-4.26562 1.54687,0 -3.60938,3.48437 3.76564,5.10938 -1.50001,0 -3.06249,-4.34375 -1.40626,1.35937 0,2.98438 -1.14063,0 z m 8.00391,0 0,-8.59375 1.14062,0 0,7.57812 4.23438,0 0,1.01563 -5.375,0 z m 9.92969,0 0,-6.21875 0.9375,0 0,0.875 q 0.68751,-1.01563 1.98437,-1.01563 0.5625,0 1.03126,0.20313 0.48437,0.20312 0.71875,0.53125 0.23438,0.32812 0.32812,0.76562 0.0469,0.29688 0.0469,1.03125 l 0,3.82813 -1.04687,0 0,-3.78125 q 0,-0.65625 -0.125,-0.96875 -0.125,-0.3125 -0.4375,-0.5 -0.3125,-0.20313 -0.73438,-0.20313 -0.67186,0 -1.17187,0.4375 -0.48438,0.42188 -0.48438,1.60938 l 0,3.40625 -1.04686,0 z m 10.92384,-2 1.09374,0.125 q -0.25,0.95312 -0.95312,1.48437 -0.70313,0.53125 -1.78125,0.53125 -1.35938,0 -2.17187,-0.84375 -0.79688,-0.84375 -0.79688,-2.35937 0,-1.5625 0.8125,-2.42188 0.81249,-0.875 2.09375,-0.875 1.25,0 2.03125,0.84375 0.79688,0.84375 0.79688,2.39063 0,0.0937 0,0.28125 l -4.64064,0 q 0.0625,1.03125 0.57813,1.57812 0.51562,0.53125 1.29688,0.53125 0.57812,0 0.98438,-0.29687 0.42187,-0.3125 0.65625,-0.96875 z m -3.45314,-1.70313 3.46876,0 q -0.0625,-0.79687 -0.39063,-1.1875 -0.51562,-0.60937 -1.3125,-0.60937 -0.73438,0 -1.23438,0.48437 -0.48437,0.48438 -0.53125,1.3125 z m 7.01759,3.70313 -1.90625,-6.21875 1.09374,0 0.98437,3.59375 0.375,1.32812 q 0.0312,-0.0937 0.32814,-1.28125 l 0.98436,-3.64062 1.07813,0 0.9375,3.60937 0.3125,1.1875 0.35938,-1.20312 1.06249,-3.59375 1.03126,0 -1.95313,6.21875 -1.09374,0 -0.98438,-3.73438 -0.25001,-1.04687 -1.25,4.78125 -1.10936,0 z m 7.1035,-1.85938 1.03126,-0.15625 q 0.0937,0.625 0.48438,0.95313 0.40625,0.32812 1.14061,0.32812 0.71876,0 1.0625,-0.28125 0.35938,-0.29687 0.35938,-0.70312 0,-0.35938 -0.3125,-0.5625 -0.21874,-0.14063 -1.07812,-0.35938 -1.15626,-0.29687 -1.60937,-0.5 -0.4375,-0.21875 -0.67188,-0.59375 -0.23438,-0.375 -0.23438,-0.84375 0,-0.40625 0.1875,-0.76562 0.1875,-0.35938 0.51562,-0.59375 0.25,-0.17188 0.67188,-0.29688 0.42187,-0.125 0.92187,-0.125 0.71876,0 1.26564,0.21875 0.5625,0.20313 0.82812,0.5625 0.26563,0.35938 0.35937,0.95313 l -1.03125,0.14062 q -0.0625,-0.46875 -0.40624,-0.73437 -0.32814,-0.28125 -0.95314,-0.28125 -0.71874,0 -1.03125,0.25 -0.3125,0.23437 -0.3125,0.5625 0,0.20312 0.125,0.35937 0.14064,0.17188 0.40625,0.28125 0.15626,0.0625 0.9375,0.26563 1.125,0.3125 1.5625,0.5 0.43751,0.1875 0.68751,0.54687 0.25,0.35938 0.25,0.90625 0,0.53125 -0.3125,1 -0.29687,0.45313 -0.87501,0.71875 -0.57812,0.25 -1.3125,0.25 -1.21875,0 -1.85937,-0.5 -0.625,-0.51562 -0.79688,-1.5 z m 13.81836,1.09375 q -0.59374,0.5 -1.14062,0.70313 -0.53124,0.20312 -1.15624,0.20312 -1.03125,0 -1.57813,-0.5 -0.54688,-0.5 -0.54688,-1.28125 0,-0.45312 0.20312,-0.82812 0.20314,-0.39063 0.54688,-0.60938 0.34376,-0.23437 0.76563,-0.34375 0.29688,-0.0937 0.9375,-0.17187 1.26562,-0.14063 1.875,-0.35938 0,-0.21875 0,-0.26562 0,-0.65625 -0.29688,-0.92188 -0.40624,-0.34375 -1.20312,-0.34375 -0.73438,0 -1.09376,0.26563 -0.35937,0.25 -0.53125,0.90625 l -1.03124,-0.14063 q 0.14062,-0.65625 0.46874,-1.0625 0.32814,-0.40625 0.93751,-0.625 0.60938,-0.21875 1.40624,-0.21875 0.79688,0 1.29688,0.1875 0.50001,0.1875 0.73437,0.46875 0.23438,0.28125 0.32814,0.71875 0.0469,0.26563 0.0469,0.96875 l 0,1.40625 q 0,1.46875 0.0625,1.85938 0.0781,0.39062 0.28125,0.75 l -1.10937,0 q -0.15625,-0.32813 -0.20313,-0.76563 z m -0.0937,-2.35937 q -0.57812,0.23437 -1.71874,0.40625 -0.65625,0.0937 -0.92187,0.21875 -0.26564,0.10937 -0.42188,0.32812 -0.14062,0.21875 -0.14062,0.5 0,0.42188 0.3125,0.70313 0.32812,0.28125 0.93749,0.28125 0.60938,0 1.07812,-0.26563 0.48438,-0.26562 0.70314,-0.73437 0.17186,-0.35938 0.17186,-1.04688 l 0,-0.39062 z m 2.70509,3.125 0,-6.21875 0.9375,0 0,0.875 q 0.68749,-1.01563 1.98437,-1.01563 0.5625,0 1.03126,0.20313 0.48437,0.20312 0.71875,0.53125 0.23436,0.32812 0.32812,0.76562 0.0469,0.29688 0.0469,1.03125 l 0,3.82813 -1.04689,0 0,-3.78125 q 0,-0.65625 -0.125,-0.96875 -0.125,-0.3125 -0.4375,-0.5 -0.3125,-0.20313 -0.73436,-0.20313 -0.67188,0 -1.17188,0.4375 -0.48437,0.42188 -0.48437,1.60938 l 0,3.40625 -1.04688,0 z m 10.70509,0 0,-0.78125 q -0.59375,0.92187 -1.7344,0.92187 -0.75,0 -1.375,-0.40625 -0.62499,-0.42187 -0.96875,-1.15625 -0.34374,-0.73437 -0.34374,-1.6875 0,-0.92187 0.3125,-1.6875 0.3125,-0.76562 0.93749,-1.15625 0.625,-0.40625 1.39064,-0.40625 0.5625,0 1,0.23438 0.43751,0.23437 0.71876,0.60937 l 0,-3.07812 1.04686,0 0,8.59375 -0.98436,0 z m -3.32815,-3.10938 q 0,1.20313 0.50001,1.79688 0.5,0.57812 1.1875,0.57812 0.6875,0 1.17189,-0.5625 0.48437,-0.5625 0.48437,-1.71875 0,-1.28125 -0.50001,-1.875 -0.48437,-0.59375 -1.20313,-0.59375 -0.70312,0 -1.17188,0.57813 -0.46875,0.5625 -0.46875,1.79687 z m 9.3047,5.5 0,-8.60937 0.95313,0 0,0.79687 q 0.34376,-0.46875 0.76562,-0.70312 0.4375,-0.23438 1.04688,-0.23438 0.79687,0 1.40625,0.40625 0.60938,0.40625 0.90626,1.15625 0.3125,0.75 0.3125,1.64063 0,0.95312 -0.34376,1.71875 -0.32812,0.76562 -0.98438,1.17187 -0.65624,0.40625 -1.37499,0.40625 -0.53126,0 -0.95312,-0.21875 -0.42188,-0.23437 -0.6875,-0.5625 l 0,3.03125 -1.04689,0 z m 0.95313,-5.46875 q 0,1.20313 0.48438,1.78125 0.48438,0.5625 1.17188,0.5625 0.70311,0 1.20311,-0.59375 0.5,-0.59375 0.5,-1.84375 0,-1.1875 -0.48436,-1.76562 -0.48438,-0.59375 -1.17189,-0.59375 -0.67186,0 -1.1875,0.625 -0.51562,0.625 -0.51562,1.82812 z m 5.68946,3.07813 0,-8.59375 1.0625,0 0,8.59375 -1.0625,0 z m 6.75976,-0.76563 q -0.59376,0.5 -1.14063,0.70313 -0.53124,0.20312 -1.15624,0.20312 -1.03126,0 -1.57814,-0.5 -0.54687,-0.5 -0.54687,-1.28125 0,-0.45312 0.20312,-0.82812 0.20314,-0.39063 0.54689,-0.60938 0.34374,-0.23437 0.76562,-0.34375 0.29688,-0.0937 0.9375,-0.17187 1.26563,-0.14063 1.87499,-0.35938 0,-0.21875 0,-0.26562 0,-0.65625 -0.29686,-0.92188 -0.40625,-0.34375 -1.20313,-0.34375 -0.73438,0 -1.09376,0.26563 -0.35936,0.25 -0.53124,0.90625 l -1.03125,-0.14063 q 0.14062,-0.65625 0.46875,-1.0625 0.32812,-0.40625 0.9375,-0.625 0.60938,-0.21875 1.40624,-0.21875 0.79689,0 1.29689,0.1875 0.5,0.1875 0.73436,0.46875 0.23438,0.28125 0.32814,0.71875 0.0469,0.26563 0.0469,0.96875 l 0,1.40625 q 0,1.46875 0.0625,1.85938 0.0781,0.39062 0.28125,0.75 l -1.10937,0 q -0.15625,-0.32813 -0.20313,-0.76563 z m -0.0937,-2.35937 q -0.57813,0.23437 -1.71875,0.40625 -0.65626,0.0937 -0.92188,0.21875 -0.26562,0.10937 -0.42188,0.32812 -0.14062,0.21875 -0.14062,0.5 0,0.42188 0.3125,0.70313 0.32812,0.28125 0.9375,0.28125 0.60938,0 1.07812,-0.26563 0.48438,-0.26562 0.70314,-0.73437 0.17187,-0.35938 0.17187,-1.04688 l 0,-0.39062 z m 2.70508,3.125 0,-6.21875 0.93749,0 0,0.875 q 0.6875,-1.01563 1.98438,-1.01563 0.56251,0 1.03125,0.20313 0.48438,0.20312 0.71876,0.53125 0.23436,0.32812 0.32812,0.76562 0.0469,0.29688 0.0469,1.03125 l 0,3.82813 -1.04688,0 0,-3.78125 q 0,-0.65625 -0.125,-0.96875 -0.125,-0.3125 -0.43751,-0.5 -0.3125,-0.20313 -0.73436,-0.20313 -0.67188,0 -1.17188,0.4375 -0.48438,0.42188 -0.48438,1.60938 l 0,3.40625 -1.04687,0 z m 6.25196,-1.85938 1.03125,-0.15625 q 0.0937,0.625 0.48436,0.95313 0.40626,0.32812 1.14064,0.32812 0.71874,0 1.06249,-0.28125 0.35938,-0.29687 0.35938,-0.70312 0,-0.35938 -0.3125,-0.5625 -0.21876,-0.14063 -1.07813,-0.35938 -1.15624,-0.29687 -1.60938,-0.5 -0.4375,-0.21875 -0.67186,-0.59375 -0.23439,-0.375 -0.23439,-0.84375 0,-0.40625 0.18751,-0.76562 0.1875,-0.35938 0.51562,-0.59375 0.25,-0.17188 0.67188,-0.29688 0.42188,-0.125 0.92188,-0.125 0.71874,0 1.26561,0.21875 0.5625,0.20313 0.82814,0.5625 0.26562,0.35938 0.35936,0.95313 l -1.03124,0.14062 q -0.0625,-0.46875 -0.40626,-0.73437 -0.32811,-0.28125 -0.95311,-0.28125 -0.71876,0 -1.03126,0.25 -0.3125,0.23437 -0.3125,0.5625 0,0.20312 0.125,0.35937 0.14062,0.17188 0.40626,0.28125 0.15624,0.0625 0.9375,0.26563 1.12499,0.3125 1.56249,0.5 0.4375,0.1875 0.6875,0.54687 0.25,0.35938 0.25,0.90625 0,0.53125 -0.3125,1 -0.29688,0.45313 -0.875,0.71875 -0.57812,0.25 -1.31249,0.25 -1.21876,0 -1.85938,-0.5 -0.62501,-0.51562 -0.79687,-1.5 z"
       id="path39"
       inkscape:connector-curvature="0"
       style="fill:#000000;fill-rule:nonzero" />
    <path
       d="m 163.35882,590.53886 88.00001,0 0,40 -88.00001,0 z"
       id="path41"
       inkscape:connector-curvature="0"
       style="fill:#f4cccc;fill-rule:nonzero" />
    <path
       d="m 163.35882,590.53886 88.00001,0 0,40 -88.00001,0 z"
       id="path43"
       inkscape:connector-curvature="0"
       style="fill-rule:nonzero;stroke:#000000;stroke-width:0.99999994;stroke-linecap:butt;stroke-linejoin:round" />
    <path
       d="m 173.28069,615.05886 0,-8.59375 1.15626,0 4.51562,6.75 0,-6.75 1.09374,0 0,8.59375 -1.17186,0 -4.51564,-6.75 0,6.75 -1.07812,0 z m 12.79102,-2 1.09376,0.125 q -0.25,0.95312 -0.95314,1.48437 -0.70312,0.53125 -1.78125,0.53125 -1.35936,0 -2.17186,-0.84375 -0.79688,-0.84375 -0.79688,-2.35937 0,-1.5625 0.8125,-2.42188 0.8125,-0.875 2.09374,-0.875 1.25001,0 2.03125,0.84375 0.79688,0.84375 0.79688,2.39063 0,0.0937 0,0.28125 l -4.64063,0 q 0.0625,1.03125 0.57814,1.57812 0.51562,0.53125 1.29686,0.53125 0.57813,0 0.98439,-0.29687 0.42186,-0.3125 0.65624,-0.96875 z m -3.45313,-1.70313 3.46875,0 q -0.0625,-0.79687 -0.39062,-1.1875 -0.51562,-0.60937 -1.31249,-0.60937 -0.73438,0 -1.23438,0.48437 -0.48438,0.48438 -0.53126,1.3125 z m 7.01758,3.70313 -1.90624,-6.21875 1.09374,0 0.98438,3.59375 0.375,1.32812 q 0.0312,-0.0937 0.32812,-1.28125 l 0.98437,-3.64062 1.07814,0 0.9375,3.60937 0.3125,1.1875 0.35937,-1.20312 1.0625,-3.59375 1.03124,0 -1.95312,6.21875 -1.09375,0 -0.98438,-3.73438 -0.25,-1.04687 -1.24999,4.78125 -1.10938,0 z m 7.10352,-1.85938 1.03125,-0.15625 q 0.0937,0.625 0.48438,0.95313 0.40624,0.32812 1.14062,0.32812 0.71874,0 1.06249,-0.28125 0.35938,-0.29687 0.35938,-0.70312 0,-0.35938 -0.3125,-0.5625 -0.21874,-0.14063 -1.07813,-0.35938 -1.15624,-0.29687 -1.60936,-0.5 -0.4375,-0.21875 -0.67188,-0.59375 -0.23437,-0.375 -0.23437,-0.84375 0,-0.40625 0.18749,-0.76562 0.1875,-0.35938 0.51562,-0.59375 0.25,-0.17188 0.67188,-0.29688 0.42188,-0.125 0.92188,-0.125 0.71874,0 1.26563,0.21875 0.5625,0.20313 0.82812,0.5625 0.26562,0.35938 0.35938,0.95313 l -1.03126,0.14062 q -0.0625,-0.46875 -0.40624,-0.73437 -0.32813,-0.28125 -0.95313,-0.28125 -0.71876,0 -1.03126,0.25 -0.3125,0.23437 -0.3125,0.5625 0,0.20312 0.125,0.35937 0.14064,0.17188 0.40626,0.28125 0.15624,0.0625 0.9375,0.26563 1.12499,0.3125 1.56249,0.5 0.4375,0.1875 0.6875,0.54687 0.25,0.35938 0.25,0.90625 0,0.53125 -0.3125,1 -0.29686,0.45313 -0.875,0.71875 -0.57811,0.25 -1.31249,0.25 -1.21876,0 -1.85938,-0.5 -0.62499,-0.51562 -0.79687,-1.5 z"
       id="path45"
       inkscape:connector-curvature="0"
       style="fill:#000000;fill-rule:nonzero" />
    <path
       d="m 251.35883,590.53886 95.99999,0 0,40 -95.99999,0 z"
       id="path47"
       inkscape:connector-curvature="0"
       style="fill:#e06666;fill-rule:nonzero" />
    <path
       d="m 251.35883,590.53886 95.99999,0 0,40 -95.99999,0 z"
       id="path49"
       inkscape:connector-curvature="0"
       style="fill-rule:nonzero;stroke:#000000;stroke-width:0.99999994;stroke-linecap:butt;stroke-linejoin:round" />
    <path
       d="m 261.2807,615.05886 0,-8.59375 3.25001,0 q 0.84374,0 1.29687,0.0781 0.64062,0.10938 1.0625,0.40625 0.4375,0.29688 0.6875,0.82813 0.26562,0.53125 0.26562,1.17187 0,1.09375 -0.70312,1.85938 -0.6875,0.75 -2.51563,0.75 l -2.20313,0 0,3.5 -1.14062,0 z m 1.14062,-4.5 2.21875,0 q 1.10938,0 1.56251,-0.40625 0.46874,-0.42188 0.46874,-1.17188 0,-0.53125 -0.28124,-0.90625 -0.26562,-0.39062 -0.70313,-0.51562 -0.29688,-0.0781 -1.0625,-0.0781 l -2.20313,0 0,3.07813 z m 6.70705,4.5 0,-8.59375 1.0625,0 0,8.59375 -1.0625,0 z m 6.75976,-0.76563 q -0.59376,0.5 -1.14063,0.70313 -0.53124,0.20312 -1.15624,0.20312 -1.03126,0 -1.57813,-0.5 -0.54688,-0.5 -0.54688,-1.28125 0,-0.45312 0.20312,-0.82812 0.20314,-0.39063 0.54689,-0.60938 0.34374,-0.23437 0.76562,-0.34375 0.29688,-0.0937 0.9375,-0.17187 1.26562,-0.14063 1.87499,-0.35938 0,-0.21875 0,-0.26562 0,-0.65625 -0.29686,-0.92188 -0.40625,-0.34375 -1.20313,-0.34375 -0.73438,0 -1.09376,0.26563 -0.35936,0.25 -0.53124,0.90625 l -1.03125,-0.14063 q 0.14062,-0.65625 0.46875,-1.0625 0.32812,-0.40625 0.9375,-0.625 0.60938,-0.21875 1.40624,-0.21875 0.79689,0 1.29689,0.1875 0.5,0.1875 0.73436,0.46875 0.23438,0.28125 0.32814,0.71875 0.0469,0.26563 0.0469,0.96875 l 0,1.40625 q 0,1.46875 0.0625,1.85938 0.0781,0.39062 0.28125,0.75 l -1.10937,0 q -0.15625,-0.32813 -0.20313,-0.76563 z m -0.0937,-2.35937 q -0.57813,0.23437 -1.71875,0.40625 -0.65626,0.0937 -0.92188,0.21875 -0.26562,0.10937 -0.42188,0.32812 -0.14062,0.21875 -0.14062,0.5 0,0.42188 0.3125,0.70313 0.32812,0.28125 0.9375,0.28125 0.60938,0 1.07812,-0.26563 0.48438,-0.26562 0.70314,-0.73437 0.17187,-0.35938 0.17187,-1.04688 l 0,-0.39062 z m 2.70508,3.125 0,-6.21875 0.93749,0 0,0.875 q 0.6875,-1.01563 1.98438,-1.01563 0.56249,0 1.03125,0.20313 0.48438,0.20312 0.71874,0.53125 0.23438,0.32812 0.32814,0.76562 0.0469,0.29688 0.0469,1.03125 l 0,3.82813 -1.04688,0 0,-3.78125 q 0,-0.65625 -0.125,-0.96875 -0.125,-0.3125 -0.43749,-0.5 -0.3125,-0.20313 -0.73438,-0.20313 -0.67188,0 -1.17188,0.4375 -0.48438,0.42188 -0.48438,1.60938 l 0,3.40625 -1.04687,0 z m 6.25194,-1.85938 1.03125,-0.15625 q 0.0937,0.625 0.48438,0.95313 0.40626,0.32812 1.14062,0.32812 0.71875,0 1.06251,-0.28125 0.35938,-0.29687 0.35938,-0.70312 0,-0.35938 -0.3125,-0.5625 -0.21876,-0.14063 -1.07813,-0.35938 -1.15626,-0.29687 -1.60938,-0.5 -0.4375,-0.21875 -0.67188,-0.59375 -0.23437,-0.375 -0.23437,-0.84375 0,-0.40625 0.18751,-0.76562 0.1875,-0.35938 0.51562,-0.59375 0.25,-0.17188 0.67188,-0.29688 0.42186,-0.125 0.92186,-0.125 0.71876,0 1.26563,0.21875 0.5625,0.20313 0.82812,0.5625 0.26564,0.35938 0.35938,0.95313 l -1.03124,0.14062 q -0.0625,-0.46875 -0.40626,-0.73437 -0.32813,-0.28125 -0.95313,-0.28125 -0.71874,0 -1.03124,0.25 -0.3125,0.23437 -0.3125,0.5625 0,0.20312 0.125,0.35937 0.14062,0.17188 0.40624,0.28125 0.15626,0.0625 0.9375,0.26563 1.12501,0.3125 1.56251,0.5 0.4375,0.1875 0.6875,0.54687 0.25,0.35938 0.25,0.90625 0,0.53125 -0.3125,1 -0.29688,0.45313 -0.875,0.71875 -0.57813,0.25 -1.31251,0.25 -1.21874,0 -1.85936,-0.5 -0.62501,-0.51562 -0.79689,-1.5 z"
       id="path51"
       inkscape:connector-curvature="0"
       style="fill:#000000;fill-rule:nonzero" />
    <path
       d="m 347.35882,630.53886 96,0 0,40 -96,0 z"
       id="path53"
       inkscape:connector-curvature="0"
       style="fill:#cc0000;fill-rule:nonzero" />
    <path
       d="m 347.35882,630.53886 96,0 0,40 -96,0 z"
       id="path55"
       inkscape:connector-curvature="0"
       style="fill-rule:nonzero;stroke:#000000;stroke-width:0.99999994;stroke-linecap:butt;stroke-linejoin:round" />
    <path
       d="m 357.32757,655.05886 0,-8.59375 1.125,0 0,3.53125 4.46876,0 0,-3.53125 1.14062,0 0,8.59375 -1.14062,0 0,-4.04688 -4.46876,0 0,4.04688 -1.125,0 z m 12.74414,-2 1.09376,0.125 q -0.25,0.95312 -0.95312,1.48437 -0.70314,0.53125 -1.78125,0.53125 -1.35938,0 -2.17188,-0.84375 -0.79687,-0.84375 -0.79687,-2.35937 0,-1.5625 0.81249,-2.42188 0.8125,-0.875 2.09376,-0.875 1.24999,0 2.03125,0.84375 0.79686,0.84375 0.79686,2.39063 0,0.0937 0,0.28125 l -4.64061,0 q 0.0625,1.03125 0.57812,1.57812 0.51562,0.53125 1.29688,0.53125 0.57811,0 0.98437,-0.29687 0.42188,-0.3125 0.65624,-0.96875 z m -3.45311,-1.70313 3.46875,0 q -0.0625,-0.79687 -0.39064,-1.1875 -0.51562,-0.60937 -1.31249,-0.60937 -0.73438,0 -1.23438,0.48437 -0.48438,0.48438 -0.53124,1.3125 z m 5.86132,3.70313 0,-6.21875 0.95312,0 0,0.9375 q 0.35938,-0.65625 0.65626,-0.85938 0.3125,-0.21875 0.6875,-0.21875 0.53125,0 1.07811,0.32813 l -0.35936,0.98437 q -0.39064,-0.23437 -0.76563,-0.23437 -0.35938,0 -0.64062,0.21875 -0.26564,0.20312 -0.375,0.57812 -0.1875,0.5625 -0.1875,1.21875 l 0,3.26563 -1.04688,0 z m 4.01171,-7.375 0,-1.21875 1.0625,0 0,1.21875 -1.0625,0 z m 0,7.375 0,-6.21875 1.0625,0 0,6.21875 -1.0625,0 z m 2.66603,0 0,-6.21875 0.9375,0 0,0.875 q 0.6875,-1.01563 1.98437,-1.01563 0.5625,0 1.03124,0.20313 0.48438,0.20312 0.71876,0.53125 0.23438,0.32812 0.32812,0.76562 0.0469,0.29688 0.0469,1.03125 l 0,3.82813 -1.04686,0 0,-3.78125 q 0,-0.65625 -0.125,-0.96875 -0.125,-0.3125 -0.4375,-0.5 -0.3125,-0.20313 -0.73438,-0.20313 -0.67187,0 -1.17187,0.4375 -0.48438,0.42188 -0.48438,1.60938 l 0,3.40625 -1.04688,0 z m 6.4707,0.51562 1.03124,0.15625 q 0.0625,0.46875 0.35938,0.6875 0.39062,0.29688 1.06251,0.29688 0.73436,0 1.125,-0.29688 0.40624,-0.29687 0.54686,-0.8125 0.0937,-0.32812 0.0781,-1.35937 -0.6875,0.8125 -1.71874,0.8125 -1.28125,0 -1.98439,-0.92188 -0.70312,-0.9375 -0.70312,-2.21875 0,-0.89062 0.3125,-1.64062 0.32812,-0.76563 0.9375,-1.17188 0.60938,-0.40625 1.43751,-0.40625 1.10936,0 1.82812,0.89063 l 0,-0.75 0.96875,0 0,5.375 q 0,1.45312 -0.29688,2.0625 -0.29687,0.60937 -0.93749,0.95312 -0.64064,0.35938 -1.57814,0.35938 -1.10937,0 -1.79687,-0.5 -0.6875,-0.5 -0.67188,-1.51563 z m 0.875,-3.73437 q 0,1.21875 0.48438,1.78125 0.48436,0.5625 1.21875,0.5625 0.73436,0 1.21874,-0.5625 0.5,-0.5625 0.5,-1.75 0,-1.14063 -0.51562,-1.71875 -0.5,-0.57813 -1.21876,-0.57813 -0.70311,0 -1.20311,0.57813 -0.48438,0.5625 -0.48438,1.6875 z"
       id="path57"
       inkscape:connector-curvature="0"
       style="fill:#000000;fill-rule:nonzero" />
    <path
       d="m 443.35882,630.53886 136,0 0,40 -136,0 z"
       id="path59"
       inkscape:connector-curvature="0"
       style="fill:#e06666;fill-rule:nonzero" />
    <path
       d="m 443.35882,630.53886 136,0 0,40 -136,0 z"
       id="path61"
       inkscape:connector-curvature="0"
       style="fill-rule:nonzero;stroke:#000000;stroke-width:0.99999994;stroke-linecap:butt;stroke-linejoin:round" />
    <path
       d="m 453.28073,655.05886 0,-8.59375 1.15625,0 4.51563,6.75 0,-6.75 1.09375,0 0,8.59375 -1.17189,0 -4.51561,-6.75 0,6.75 -1.07813,0 z m 12.79101,-2 1.09376,0.125 q -0.25,0.95312 -0.95314,1.48437 -0.70311,0.53125 -1.78125,0.53125 -1.35936,0 -2.17187,-0.84375 -0.79688,-0.84375 -0.79688,-2.35937 0,-1.5625 0.8125,-2.42188 0.81251,-0.875 2.09375,-0.875 1.25,0 2.03125,0.84375 0.79688,0.84375 0.79688,2.39063 0,0.0937 0,0.28125 l -4.64062,0 q 0.0625,1.03125 0.57813,1.57812 0.51562,0.53125 1.29686,0.53125 0.57814,0 0.98438,-0.29687 0.42188,-0.3125 0.65625,-0.96875 z m -3.45312,-1.70313 3.46874,0 q -0.0625,-0.79687 -0.39061,-1.1875 -0.51564,-0.60937 -1.3125,-0.60937 -0.73438,0 -1.23438,0.48437 -0.48437,0.48438 -0.53125,1.3125 z m 5.17382,3.70313 2.26563,-3.23438 -2.09375,-2.98437 1.31249,0 0.95314,1.45312 q 0.26562,0.42188 0.4375,0.70313 0.25,-0.39063 0.46874,-0.6875 l 1.04688,-1.46875 1.26563,0 -2.15625,2.92187 2.31249,3.29688 -1.28124,0 -1.28125,-1.9375 -0.34376,-0.51563 -1.64063,2.45313 -1.26562,0 z m 9.00001,-0.9375 0.15624,0.92187 q -0.45312,0.0937 -0.79688,0.0937 -0.57812,0 -0.89061,-0.17187 -0.3125,-0.1875 -0.45314,-0.48438 -0.125,-0.29687 -0.125,-1.25 l 0,-3.57812 -0.76562,0 0,-0.8125 0.76562,0 0,-1.54688 1.04689,-0.625 0,2.17188 1.0625,0 0,0.8125 -1.0625,0 0,3.64062 q 0,0.45313 0.0469,0.57813 0.0625,0.125 0.1875,0.20312 0.125,0.0781 0.35938,0.0781 0.1875,0 0.46874,-0.0312 z m 4.46483,0.9375 0,-8.59375 1.71875,0 2.03125,6.07812 q 0.28126,0.85938 0.40626,1.28125 0.14062,-0.46875 0.45312,-1.375 l 2.06251,-5.98437 1.53124,0 0,8.59375 -1.09374,0 0,-7.1875 -2.50001,7.1875 -1.03124,0 -2.48439,-7.3125 0,7.3125 -1.09375,0 z m 14.15235,-2 1.09376,0.125 q -0.25,0.95312 -0.95314,1.48437 -0.70312,0.53125 -1.78125,0.53125 -1.35936,0 -2.17186,-0.84375 -0.79689,-0.84375 -0.79689,-2.35937 0,-1.5625 0.81251,-2.42188 0.8125,-0.875 2.09374,-0.875 1.25001,0 2.03125,0.84375 0.79688,0.84375 0.79688,2.39063 0,0.0937 0,0.28125 l -4.64063,0 q 0.0625,1.03125 0.57814,1.57812 0.51562,0.53125 1.29686,0.53125 0.57813,0 0.98439,-0.29687 0.42186,-0.3125 0.65624,-0.96875 z m -3.45313,-1.70313 3.46875,0 q -0.0625,-0.79687 -0.39062,-1.1875 -0.51562,-0.60937 -1.31249,-0.60937 -0.73438,0 -1.23438,0.48437 -0.48438,0.48438 -0.53126,1.3125 z m 10.12695,1.70313 1.09376,0.125 q -0.25,0.95312 -0.95312,1.48437 -0.70314,0.53125 -1.78126,0.53125 -1.35937,0 -2.17187,-0.84375 -0.79688,-0.84375 -0.79688,-2.35937 0,-1.5625 0.8125,-2.42188 0.8125,-0.875 2.09375,-0.875 1.25,0 2.03126,0.84375 0.79686,0.84375 0.79686,2.39063 0,0.0937 0,0.28125 l -4.64061,0 q 0.0625,1.03125 0.57812,1.57812 0.51562,0.53125 1.29687,0.53125 0.57812,0 0.98438,-0.29687 0.42188,-0.3125 0.65624,-0.96875 z m -3.45311,-1.70313 3.46875,0 q -0.0625,-0.79687 -0.39064,-1.1875 -0.51562,-0.60937 -1.3125,-0.60937 -0.73437,0 -1.23437,0.48437 -0.48438,0.48438 -0.53124,1.3125 z m 8.17383,2.76563 0.15624,0.92187 q -0.45313,0.0937 -0.79687,0.0937 -0.57812,0 -0.89062,-0.17187 -0.3125,-0.1875 -0.45314,-0.48438 -0.125,-0.29687 -0.125,-1.25 l 0,-3.57812 -0.76562,0 0,-0.8125 0.76562,0 0,-1.54688 1.04688,-0.625 0,2.17188 1.06251,0 0,0.8125 -1.06251,0 0,3.64062 q 0,0.45313 0.0469,0.57813 0.0625,0.125 0.1875,0.20312 0.125,0.0781 0.35938,0.0781 0.1875,0 0.46875,-0.0312 z m 5.11523,0.9375 0,-0.92188 q -0.73438,1.0625 -1.98438,1.0625 -0.54687,0 -1.03125,-0.20312 -0.46874,-0.21875 -0.70312,-0.53125 -0.23438,-0.32813 -0.32812,-0.79688 -0.0625,-0.29687 -0.0625,-0.98437 l 0,-3.84375 1.0625,0 0,3.45312 q 0,0.8125 0.0625,1.10938 0.0937,0.40625 0.40624,0.65625 0.32812,0.23437 0.81251,0.23437 0.46874,0 0.875,-0.23437 0.42186,-0.25 0.59374,-0.67188 0.1875,-0.42187 0.1875,-1.21875 l 0,-3.32812 1.04687,0 0,6.21875 -0.93749,0 z m 2.59571,2.39062 0,-8.60937 0.95312,0 0,0.79687 q 0.34374,-0.46875 0.76563,-0.70312 0.4375,-0.23438 1.04686,-0.23438 0.79688,0 1.40626,0.40625 0.60937,0.40625 0.90625,1.15625 0.3125,0.75 0.3125,1.64063 0,0.95312 -0.34376,1.71875 -0.32812,0.76562 -0.98437,1.17187 -0.65624,0.40625 -1.375,0.40625 -0.53124,0 -0.95312,-0.21875 -0.42187,-0.23437 -0.68751,-0.5625 l 0,3.03125 -1.04686,0 z m 0.95312,-5.46875 q 0,1.20313 0.48438,1.78125 0.48437,0.5625 1.17187,0.5625 0.70312,0 1.20312,-0.59375 0.5,-0.59375 0.5,-1.84375 0,-1.1875 -0.48438,-1.76562 -0.48436,-0.59375 -1.17186,-0.59375 -0.67188,0 -1.18751,0.625 -0.51562,0.625 -0.51562,1.82812 z"
       id="path63"
       inkscape:connector-curvature="0"
       style="fill:#000000;fill-rule:nonzero" />
    <path
       d="m 331.35882,550.53886 16,0 0,40 -16,0 z"
       id="path65"
       inkscape:connector-curvature="0"
       style="fill:#f4cccc;fill-rule:nonzero" />
    <path
       d="m 331.35882,550.53886 16,0 0,40 -16,0 z"
       id="path67"
       inkscape:connector-curvature="0"
       style="fill-rule:nonzero;stroke:#000000;stroke-width:0.99999994;stroke-linecap:butt;stroke-linejoin:round" />
    <path
       d="m 299.35882,550.53886 32,0 0,40 -32,0 z"
       id="path69"
       inkscape:connector-curvature="0"
       style="fill:#dd7e6b;fill-rule:nonzero" />
    <path
       d="m 299.35882,550.53886 32,0 0,40 -32,0 z"
       id="path71"
       inkscape:connector-curvature="0"
       style="fill-rule:nonzero;stroke:#000000;stroke-width:0.99999994;stroke-linecap:butt;stroke-linejoin:round" />
    <path
       d="m 291.35882,550.53886 8,0 0,40 -8,0 z"
       id="path73"
       inkscape:connector-curvature="0"
       style="fill:#cc0000;fill-rule:nonzero" />
    <path
       d="m 291.35882,550.53886 8,0 0,40 -8,0 z"
       id="path75"
       inkscape:connector-curvature="0"
       style="fill-rule:nonzero;stroke:#000000;stroke-width:0.99999994;stroke-linecap:butt;stroke-linejoin:round" />
    <path
       d="m 163.35882,574.53886 -48,56"
       id="path77"
       inkscape:connector-curvature="0"
       style="fill:#000000;fill-opacity:0;fill-rule:nonzero" />
    <path
       d="m 163.35882,574.53886 -44.09526,51.44446"
       id="path79"
       inkscape:connector-curvature="0"
       style="fill-rule:evenodd;stroke:#000000;stroke-width:0.99999994;stroke-linecap:butt;stroke-linejoin:round" />
    <path
       d="m 118.00948,624.9084 -1.69926,4.52051 4.20744,-2.37067 z"
       id="path81"
       inkscape:connector-curvature="0"
       style="fill:#000000;fill-rule:evenodd;stroke:#000000;stroke-width:0.99999994;stroke-linecap:butt" />
    <path
       d="m 55.35882,614.53886 28.000001,36"
       id="path83"
       inkscape:connector-curvature="0"
       style="fill:#000000;fill-opacity:0;fill-rule:nonzero" />
    <path
       d="m 55.35882,614.53886 24.316358,31.26389"
       id="path85"
       inkscape:connector-curvature="0"
       style="fill-rule:evenodd;stroke:#000000;stroke-width:0.99999994;stroke-linecap:butt;stroke-linejoin:round" />
    <path
       d="m 78.371382,646.81681 4.089916,2.56808 -1.482331,-4.59622 z"
       id="path87"
       inkscape:connector-curvature="0"
       style="fill:#000000;fill-rule:evenodd;stroke:#000000;stroke-width:0.99999994;stroke-linecap:butt" />
  </g>
</svg>
